HIERARCHY
ROOT Hips
{
	OFFSET 0.00000 0.00000 0.00000
	CHANNELS 6 Xposition Yposition Zposition Zrotation Yrotation Xrotation 
	JOINT LHipJoint
	{
		OFFSET 0 0 0
		CHANNELS 3 Zrotation Yrotation Xrotation
		JOINT LeftUpLeg
		{
			OFFSET 1.37590 -1.78394 0.89329
			CHANNELS 3 Zrotation Yrotation Xrotation
			JOINT LeftLeg
			{
				OFFSET 2.47928 -6.81178 0.00000
				CHANNELS 3 Zrotation Yrotation Xrotation
				JOINT LeftFoot
				{
					OFFSET 2.63345 -7.23535 0.00000
					CHANNELS 3 Zrotation Yrotation Xrotation
					JOINT LeftToeBase
					{
						OFFSET 0.23938 -0.65768 2.27012
						CHANNELS 3 Zrotation Yrotation Xrotation
						End Site
						{
							OFFSET 0.00000 -0.00000 1.18363
						}
					}
				}
			}
		}
	}
	JOINT RHipJoint
	{
		OFFSET 0 0 0
		CHANNELS 3 Zrotation Yrotation Xrotation
		JOINT RightUpLeg
		{
			OFFSET -1.33617 -1.78394 0.89329
			CHANNELS 3 Zrotation Yrotation Xrotation
			JOINT RightLeg
			{
				OFFSET -2.56922 -7.05888 0.00000
				CHANNELS 3 Zrotation Yrotation Xrotation
				JOINT RightFoot
				{
					OFFSET -2.56568 -7.04915 0.00000
					CHANNELS 3 Zrotation Yrotation Xrotation
					JOINT RightToeBase
					{
						OFFSET -0.27533 -0.75646 2.18105
						CHANNELS 3 Zrotation Yrotation Xrotation
						End Site
						{
							OFFSET -0.00000 -0.00000 1.15233
						}
					}
				}
			}
		}
	}
	JOINT LowerBack
	{
		OFFSET 0 0 0
		CHANNELS 3 Zrotation Yrotation Xrotation
		JOINT Spine
		{
			OFFSET 0.06190 2.15152 -0.00935
			CHANNELS 3 Zrotation Yrotation Xrotation
			JOINT Spine1
			{
				OFFSET 0.06334 2.15332 0.00872
				CHANNELS 3 Zrotation Yrotation Xrotation
				JOINT Neck
				{
					OFFSET 0 0 0
					CHANNELS 3 Zrotation Yrotation Xrotation
					JOINT Neck1
					{
						OFFSET -0.04202 1.66908 0.23524
						CHANNELS 3 Zrotation Yrotation Xrotation
						JOINT Head
						{
							OFFSET 0.07510 1.69357 -0.24440
							CHANNELS 3 Zrotation Yrotation Xrotation
							End Site
							{
								OFFSET 0.02556 1.71719 -0.11000
							}
						}
					}
				}
				JOINT LeftShoulder
				{
					OFFSET 0 0 0
					CHANNELS 3 Zrotation Yrotation Xrotation
					JOINT LeftArm
					{
						OFFSET 3.67168 1.26306 -0.41342
						CHANNELS 3 Zrotation Yrotation Xrotation
						JOINT LeftForeArm
						{
							OFFSET 4.68510 -0.00000 -0.00000
							CHANNELS 3 Zrotation Yrotation Xrotation
							JOINT LeftHand
							{
								OFFSET 3.39626 -0.00000 -0.00000
								CHANNELS 3 Zrotation Yrotation Xrotation
								JOINT LeftFingerBase
								{
									OFFSET 0 0 0
									CHANNELS 3 Zrotation Yrotation Xrotation
									JOINT LeftHandIndex1
									{
										OFFSET 0.48608 -0.00000 -0.00000
										CHANNELS 3 Zrotation Yrotation Xrotation
										End Site
										{
											OFFSET 0.39189 -0.00000 -0.00000
										}
									}
								}
								JOINT LThumb
								{
									OFFSET 0 0 0
									CHANNELS 3 Zrotation Yrotation Xrotation
									End Site
									{
										OFFSET 0.39787 -0.00000 0.39787
									}
								}
							}
						}
					}
				}
				JOINT RightShoulder
				{
					OFFSET 0 0 0
					CHANNELS 3 Zrotation Yrotation Xrotation
					JOINT RightArm
					{
						OFFSET -3.04136 1.42992 -0.76390
						CHANNELS 3 Zrotation Yrotation Xrotation
						JOINT RightForeArm
						{
							OFFSET -5.55576 -0.00000 -0.00000
							CHANNELS 3 Zrotation Yrotation Xrotation
							JOINT RightHand
							{
								OFFSET -3.32774 -0.00000 -0.00000
								CHANNELS 3 Zrotation Yrotation Xrotation
								JOINT RightFingerBase
								{
									OFFSET 0 0 0
									CHANNELS 3 Zrotation Yrotation Xrotation
									JOINT RightHandIndex1
									{
										OFFSET -0.50763 -0.00000 -0.00000
										CHANNELS 3 Zrotation Yrotation Xrotation
										End Site
										{
											OFFSET -0.40926 -0.00000 -0.00000
										}
									}
								}
								JOINT RThumb
								{
									OFFSET 0 0 0
									CHANNELS 3 Zrotation Yrotation Xrotation
									End Site
									{
										OFFSET -0.41551 -0.00000 0.41551
									}
								}
							}
						}
					}
				}
			}
		}
	}
}
MOTION
Frames: 5
Frame Time: .0083333
-8.4763 17.9605 4.8874 -19.2423 -71.7326 23.5159 0.0000 0.0000 0.0000 -13.2309 -16.1393 -15.9520 1.2458 7.0768 19.9432 -0.0178 -3.8274 -1.8067 0.0215 -0.9459 -2.6001 0.0000 0.0000 0.0000 24.5689 -5.9541 -20.0525 -8.5834 -16.5321 54.6380 0.5791 -13.3714 -5.9960 -0.0079 -0.5755 1.5813 3.2069 7.4117 -0.1999 -0.2177 9.8910 -1.0677 -1.9522 4.9254 -0.4126 -10.3601 -8.6914 -15.8177 14.8126 -11.6750 9.2895 5.1439 -4.9639 6.9630 0.0000 -0.0000 0.0000 -91.2352 8.6780 -13.4715 16.3640 -26.0117 -3.8042 -0.0000 -0.0000 30.9426 13.5760 24.2859 5.6720 -7.1250 0.0000 -0.0000 -16.6153 54.1043 -3.7983 0.0000 -0.0000 0.0000 65.9030 31.4433 31.3556 -46.6911 51.5705 -23.5562 0.0000 0.0000 5.8829 -24.2318 -43.0763 17.0872 7.1250 -0.0000 -0.0000 24.0133 -74.5739 -16.9904
-8.6092 17.9692 4.9092 -18.7615 -71.8741 22.9606 0.0000 0.0000 0.0000 -13.5915 -15.9450 -15.3021 1.2440 7.0720 19.9290 -0.0108 -3.8729 -2.2160 0.0211 -0.9374 -2.5766 0.0000 0.0000 0.0000 24.0094 -5.8845 -20.7136 -8.7368 -16.6353 55.1754 0.6227 -13.8409 -6.0117 -0.0120 -0.7079 1.9455 2.9940 7.2259 -0.1858 -0.1994 9.6432 -1.0581 -1.8287 4.8021 -0.4620 -10.2809 -8.5458 -15.8518 14.6890 -11.4835 9.4114 5.1170 -4.8736 6.9688 0.0000 0.0000 0.0000 -91.4817 8.4172 -12.9364 15.9883 -25.5048 -3.6409 -0.0000 -0.0000 31.4530 13.4158 23.8962 5.5189 -7.1250 0.0000 -0.0000 -16.5754 53.6984 -3.6223 0.0000 0.0000 0.0000 67.4215 29.5377 32.5629 -46.6512 51.5522 -23.5250 0.0000 0.0000 6.6478 -24.8215 -42.7135 17.4189 7.1250 -0.0000 -0.0000 22.4393 -74.4823 -15.8064
-8.7407 17.9776 4.9298 -18.3018 -72.0102 22.4340 0.0000 0.0000 0.0000 -13.9308 -15.7524 -14.6582 1.2402 7.0615 19.8977 -0.0024 -3.9135 -2.6357 0.0213 -0.9425 -2.5905 0.0000 0.0000 0.0000 23.4634 -5.8014 -21.3659 -8.8580 -16.7154 55.5976 0.6664 -14.2992 -6.0927 -0.0169 -0.8404 2.3097 2.7874 7.0373 -0.1712 -0.1736 9.3915 -1.0499 -1.7001 4.6770 -0.5118 -10.1972 -8.3958 -15.8872 14.5572 -11.2852 9.5319 5.0875 -4.7805 6.9730 0.0000 -0.0000 0.0000 -91.7152 8.1543 -12.2871 15.6531 -25.0480 -3.4978 -0.0000 -0.0000 31.8845 13.2663 23.4972 5.3702 -7.1250 0.0000 -0.0000 -16.5240 53.2858 -3.4417 0.0000 -0.0000 0.0000 68.8746 27.6423 33.6492 -46.3410 51.4088 -23.2823 0.0000 0.0000 7.3572 -25.3895 -42.3471 17.7295 7.1250 -0.0000 -0.0000 20.9030 -74.3732 -14.6530
-8.8708 17.9858 4.9493 -17.8644 -72.1416 21.9382 0.0000 0.0000 0.0000 -14.2489 -15.5622 -14.0211 1.2343 7.0453 19.8498 0.0072 -3.9474 -3.0587 0.0220 -0.9582 -2.6337 0.0000 0.0000 0.0000 22.9321 -5.7045 -22.0056 -8.9449 -16.7721 55.8992 0.7101 -14.7442 -6.2348 -0.0228 -0.9739 2.6769 2.5894 6.8459 -0.1526 -0.1425 9.1364 -1.0457 -1.5706 4.5500 -0.5657 -10.1073 -8.2412 -15.9236 14.4184 -11.0806 9.6523 5.0553 -4.6847 6.9762 -0.0000 -0.0000 0.0000 -91.9311 7.8940 -11.5245 15.3607 -24.6462 -3.3749 -0.0000 -0.0000 32.2309 13.1307 23.0921 5.2276 -7.1250 0.0000 -0.0000 -16.4596 52.8699 -3.2579 -0.0000 -0.0000 0.0000 70.2679 25.7647 34.6121 -45.7628 51.1368 -22.8312 0.0000 0.0000 8.0002 -25.9383 -41.9804 18.0218 7.1250 -0.0000 -0.0000 19.4107 -74.2502 -13.5368
-8.9997 17.9936 4.9676 -17.4499 -72.2711 21.4735 0.0000 0.0000 0.0000 -14.5465 -15.3740 -13.3907 1.2262 7.0231 19.7840 0.0179 -3.9749 -3.4820 0.0233 -0.9849 -2.7074 0.0000 0.0000 0.0000 22.4146 -5.5922 -22.6285 -8.9957 -16.8049 56.0751 0.7531 -15.1708 -6.4339 -0.0294 -1.1063 3.0413 2.3978 6.6531 -0.1327 -0.1052 8.8794 -1.0438 -1.4376 4.4221 -0.6208 -10.0130 -8.0830 -15.9610 14.2732 -10.8705 9.7710 5.0209 -4.5866 6.9781 0.0000 0.0000 0.0000 -92.1303 7.6372 -10.6455 15.1141 -24.3048 -3.2727 -0.0000 -0.0000 32.4827 13.0106 22.6922 5.0938 -7.1250 0.0000 -0.0000 -16.3864 52.4621 -3.0766 0.0000 0.0000 0.0000 71.5977 23.9154 35.4472 -44.9259 50.7321 -22.1814 0.0000 0.0000 8.5725 -26.4652 -41.6179 18.2957 7.1250 -0.0000 -0.0000 17.9762 -74.1173 -12.4693
